<?xml version="1.0" encoding="utf-8"?>
<!-- Generator: Adobe Illustrator 23.1.1, SVG Export Plug-In . SVG Version: 6.00 Build 0)  -->
<svg version="1.1" id="Capa_1" xmlns="http://www.w3.org/2000/svg" xmlns:xlink="http://www.w3.org/1999/xlink" x="0px" y="0px"
	 viewBox="0 0 250 78" style="enable-background:new 0 0 250 78;" xml:space="preserve">
<style type="text/css">
	.st0{fill:#83DD3F;}
	.st1{fill:#00BCE4;}
	.st2{fill:#A6EA62;}
</style>
<title>Mesa de trabajo 1 copy</title>
<g id="XMLID_151_">
	<path class="st0" d="M46.1,56.4c-5.9,0-10.7,4.5-10.7,10s4.8,10,10.7,10c5.9,0,10.7-4.5,10.7-10S52.1,56.4,46.1,56.4z M46.1,70.1
		c-2,0-3.7-1.7-3.7-3.7c0-2.1,1.7-3.7,3.7-3.7c2,0,3.7,1.7,3.7,3.7C49.9,68.5,48.2,70.1,46.1,70.1z"/>
	<g id="XMLID_173_">
		<g id="XMLID_180_">
			<path id="XMLID_182_" class="st1" d="M214.3,46.5c-4.4-12.4-8.8-24.7-13.2-37.1c-0.8-2.2-2.9-3.7-5.3-3.7h-9.6
				c-2.4,0-4.5,1.5-5.3,3.8l-12.9,37c-0.5,1.4,0.6,3,2.1,3h11.9c1,0,1.9-0.7,2.2-1.7c0.3-1.2,0.6-2.5,0.9-3.7h11.8l1.2,3.9
				c0.3,0.9,1.1,1.5,2.1,1.5h12C213.7,49.5,214.8,48,214.3,46.5z M187.8,33.6l2.9-13.3h0.7l2.9,13.3L187.8,33.6z"/>
			<path class="st1" d="M166.4,36.1c-0.2-2.2-1-4.2-2.6-5.8c-1.3-1.4-2.9-2.4-4.7-3.1c-0.2-0.1-0.4-0.1-0.4-0.4
				c0-0.3,0.3-0.3,0.4-0.3c1.4-0.5,2.5-1.4,3.4-2.6c0.8-1.1,1.3-2.3,1.6-3.6c0.4-1.6,0.3-3.2,0.1-4.8c-0.4-2.7-1.7-5-4-6.7
				c-0.9-0.6-1.8-1.1-2.8-1.5c-2.6-1-5.5-1.6-8.1-1.6c-2.6,0-19.3,0-19.3,0c-0.7,0-1.2,0.6-1.2,1.3v0.4c0,0.3,0.1,0.5,0.3,0.8
				c4.4,5.4,7,12.2,7,19.7c0,7.5-2.6,14.3-7,19.7c-0.2,0.2-0.3,0.5-0.3,0.8c0,0.3,0.1,0.6,0.4,0.9c0.2,0.2,0.5,0.3,0.9,0.3
				c0,0,19,0,20,0c-1.1,0,3.1-0.1,4.6-0.3c2.3-0.4,4.5-1.1,6.6-2.3c2.3-1.3,3.9-3.3,4.7-5.8C166.5,39.4,166.6,37.8,166.4,36.1z
				 M143.6,16.2c1.3,0,2.8-0.1,4.1,0.2c1.6,0.3,2.2,1.5,2.2,2.7c0.1,1.8-1,3.2-2.8,3.3c-1.1,0.1-2.3,0-3.5,0V16.2z M148.1,39.1
				c-1.5,0.1-2.9,0-4.5,0v-7.4c1.7,0,3.6-0.1,5.2,0.2c2.1,0.4,2.8,1.8,2.9,3.2C151.9,37.3,150.5,38.9,148.1,39.1z"/>
			<path id="XMLID_181_" class="st1" d="M218.7,9.7c0,8.2,0,28.6,0,36.6c0,1.8,1.4,3.2,3.2,3.2h22.8c1.7,0,3.1-1.4,3.1-3.1l0-7.7
				c0-1.7-1.4-3.1-3.1-3.1h-10.2l0-25.8c0-2.2-1.8-4-4-4h-7.8C220.5,5.7,218.7,7.5,218.7,9.7z"/>
		</g>
		<g id="XMLID_177_">
			<path id="XMLID_179_" class="st1" d="M50.3,26.9c0,1.7,0,9.4-4.3,14.4c-2.4,2.8-9.5,8.9-19.4,8.8s-15.4-3.7-18.4-6.9
				c-3.6-3.8-6.1-9.4-6.1-15.6S4.6,15.8,8.2,12c3.6-3.9,9.1-7,19.1-7c7.8,0,16,4.2,19,8.3c0.8,1.1,0.4,2.7-0.9,3.1l-11.2,4.3
				c-0.7,0.3-1.6,0.1-2.2-0.5c-2.7-2.7-7.5-2.6-10.4,0.1c-1.5,1.4-3.3,4.1-3.3,7.8c0,6.6,4.5,9.8,8.4,9.8c1.6,0,2.9-0.5,3.9-1
				c1-0.5,1.7-1.2,2.2-2.2c0.1-0.1,0.1-0.3,0.2-0.4c0-0.1,0-0.1,0-0.2h-4c-0.9,0-1.7-0.8-1.7-1.7v-6.9c0-0.9,0.8-1.7,1.7-1.7h3.6
				l14.7,0C48.9,23.7,50.3,25.2,50.3,26.9z"/>
			<path id="XMLID_178_" class="st1" d="M73.1,35.3l-3.6,0l0-26.2c0-1.9-1.5-3.4-3.4-3.4c-2.7,0-6.4,0-9.1,0c-1.9,0-3.4,1.5-3.4,3.4
				c0,8.2,0,29.2,0,37.2c0,1.8,1.4,3.2,3.2,3.2h24c0.6,0,0.9-0.7,0.5-1.2c-2.8-3.3-5-7.2-6.3-11.5C74.8,35.9,74,35.3,73.1,35.3z"/>
		</g>
		<path id="XMLID_174_" class="st1" d="M104.8,1.6c-14.6,0-26.6,11.9-26.6,26.6c0,14.6,11.9,26.6,26.6,26.6s26.6-11.9,26.6-26.6
			C131.3,13.5,119.4,1.6,104.8,1.6z M106.3,16.1c-0.2,1.4,0.3,3.3,0.4,4.3c0.1,1,0.3,2,0.7,2.9c0.8,1.8,3.3,3.7,5.3,3.5
			c1.3-0.1,2.4-1,3.7-1c1.2,0,2.2,0.8,3.1,1.6c0.7,0.7,1.4,1.5,1.8,2.5c0.6,1.6-0.5,3,0.3,4.5l1.7,3.8c0.8,1.8,0.5,3.9-0.8,5.4
			c-4.3,4.9-10.7,8.1-17.8,8.1c-2.1,0-4.1-0.3-6-0.8c-1.6-0.4-2.8-1.9-2.9-3.5l0-0.2c-0.1-0.6,0.1-1.3,0.6-1.7c1-1,2.7-2.2,3-3.6
			c0.1-0.5,0.1-0.9,0.1-1.4c0.4-2.3,3.5-3.1,4.2-5.3c0.4-1.2-0.1-2.5-1-3.3c-1.2-1.1-2.6-1.5-3.6-2.9c-0.8-1.1-1.8-2.8-3.3-3
			c-0.9-0.1-1.7,0.3-2.5,0.6c-0.8,0.3-1.9,0.3-2.5-0.3c-0.4-0.4-0.5-0.9-0.8-1.3c-1.2-1.5-5.1,2.5-5.4,3.8c-0.1,0.3,0,0.6,0,0.9
			c0.3,1.7,0.6,3.5,1.7,4.8c1.3,1.4,4.1,1.5,4.9,3.2c0.2,0.4,0.2,1,0.3,1.4c0.1,2.1,0.2,4.3,0.3,6.4c0,0.3,0,0.7-0.1,1
			c-0.3,0.6-1,0.7-1.5,0.3c-5.7-4.3-9.3-11.1-9.3-18.8c0-1.4,0.1-2.8,0.4-4.1c0.3-1.6,1.2-1.4,2.2-2.3c0.6-0.6,0-1.7,0.4-2.5
			c0.3-0.6,1-0.7,1.6-0.7c4.2,0.1,8.6-1.7,10.7-5.5c0.4-0.8,0.8-1.6,1.3-2.3c1.2-1.6,3.6-1.6,3.6-4.1c-0.2-0.5-0.6-0.9-1.2-1
			c-0.5-0.1-0.5-0.7,0-0.8c1.5-0.3,3.1-0.5,4.7-0.5c0.8,0,2.1-0.1,2.9,0.2c1.2,0.7-1.1,2.6,0.4,3.7c0.5,0.4,1.3,0.5,1.9,0.4
			c1.4-0.2,2.5-0.5,3.9-0.4c1.6,0.2,3.1,0.6,4.6,1.1c2.7,0.9,4.6,3.3,6.1,5.7c2.2,3.4-3.9,3.6-5.6,3.5c-0.9-0.1-1.8-0.1-2.7-0.4
			c-1.7-0.6-2.4-2.3-3.9-3.1c-1.3-0.7-4.1-1.4-5.4-0.5C106.6,15,106.4,15.5,106.3,16.1z"/>
	</g>
	<path id="XMLID_172_" class="st0" d="M135.2,63.4h4.7v11.3c0,0.7,0.6,1.3,1.3,1.3h4c0.7,0,1.3-0.6,1.3-1.3V63.4h4.7
		c0.8,0,1.5-0.7,1.5-1.5v-3.7c0-0.8-0.7-1.4-1.5-1.4h-16c-0.8,0-1.5,0.6-1.5,1.4v3.7C133.8,62.7,134.4,63.4,135.2,63.4z"/>
	<path id="XMLID_169_" class="st0" d="M196.8,74.8c-2-5.7-4.1-11.4-6.1-17.1c-0.2-0.5-0.7-0.9-1.3-0.9h-5.8c-0.6,0-1.1,0.4-1.3,0.9
		l-5.9,17.1c-0.2,0.6,0.2,1.2,0.8,1.2h5.4c0.4,0,0.8-0.3,0.9-0.7c0.1-0.6,0.3-1.1,0.4-1.7h5.2l0.6,1.8c0.1,0.4,0.5,0.6,0.8,0.6h5.5
		C196.6,76,197,75.4,196.8,74.8z M185.2,69l1.3-5.8h0.3L188,69H185.2z"/>
	<path id="XMLID_156_" class="st0" d="M214.5,56.8h-5.1c-0.5,0-0.9,0.3-1,0.8l-2.9,12h-0.3l-3-12c-0.1-0.5-0.5-0.7-1-0.7h-5.1
		c-0.7,0-1.2,0.7-1,1.3c2,5.7,4,11.3,6.1,17c0.2,0.5,0.7,0.9,1.2,0.8h5.9c0.5,0,1-0.4,1.2-0.9l5.8-16.9
		C215.7,57.5,215.2,56.8,214.5,56.8z"/>
	<path id="XMLID_155_" class="st0" d="M27.5,58.1L25,68.1l-2.5-9.9c-0.2-0.7-0.9-1.3-1.6-1.3h-1.1h-1.1c-0.8,0-1.4,0.6-1.6,1.3
		l-2.5,9.9L12,58.1c-0.2-0.7-0.9-1.3-1.6-1.3H6.8c-1.1,0-1.9,1.1-1.6,2.2l4.2,15.4c0.3,1,1.2,1.6,2.2,1.6h4c1,0,2-0.7,2.2-1.7
		l1.9-7.3l1.9,7.3c0.3,1,1.2,1.7,2.2,1.7h4c1,0,1.9-0.7,2.2-1.6L34.3,59c0.3-1.1-0.5-2.2-1.6-2.2h-3.5
		C28.4,56.8,27.7,57.4,27.5,58.1z"/>
	<path id="XMLID_154_" class="st0" d="M230.7,61.9c0.5,0,0.9-0.4,0.9-0.9v-3.3c0-0.5-0.4-0.9-0.9-0.9h-11c-0.5,0-1,0.4-1,1l0,17.3
		c0,0.5,0.4,0.9,0.9,0.9h5.7h0h5.4c0.5,0,0.9-0.4,0.9-0.9v-3.3c0-0.5-0.4-0.9-0.9-0.9h-5.4V69h4.7c0.5,0,0.9-0.4,0.9-0.9v-3.3
		c0-0.5-0.4-0.9-0.9-0.9h-4.7v-2.1H230.7z"/>
	<path class="st0" d="M172.9,74.7l-3.7-6.3c1.2-0.7,3.1-1.7,3.1-5.2c0-3-2.3-6.3-6.7-6.3H157c-0.5,0-1,0.4-1,0.9v17.4
		c0,0.5,0.4,0.8,0.8,0.8h4.9c0.5,0,0.8-0.4,0.8-0.8v-5.7l3.2,6c0.1,0.3,0.4,0.5,0.7,0.5h5.6C172.9,76,173.3,75.3,172.9,74.7z
		 M163.4,65.3c-0.2,0-0.7,0-0.7,0V62c0,0,0.5,0,0.7,0c1.7,0,2.2,0.7,2.2,1.7S165,65.3,163.4,65.3z"/>
	<path class="st0" d="M77,74.7l-3.7-6.3c1.2-0.7,3.1-1.7,3.1-5.2c0-3-2.3-6.3-6.7-6.3h-8.7c-0.5,0-1,0.4-1,0.9v17.4
		c0,0.5,0.4,0.8,0.8,0.8h4.9c0.5,0,0.8-0.4,0.8-0.8v-5.7l3.2,6c0.1,0.3,0.4,0.5,0.7,0.5h5.6C76.9,76,77.4,75.3,77,74.7z M67.5,65.3
		c-0.2,0-0.7,0-0.7,0V62c0,0,0.5,0,0.7,0c1.7,0,2.2,0.7,2.2,1.7S69.1,65.3,67.5,65.3z"/>
	<path id="XMLID_153_" class="st0" d="M98.5,57.6c0.2-0.4-0.1-0.8-0.5-0.8h-6c-0.4,0-0.8,0.3-1,0.7l-3.8,7.2v-7.3
		c0-0.3-0.2-0.5-0.5-0.5h-5.5c-0.3,0-0.5,0.2-0.5,0.5v17.8c0,0.5,0.4,0.8,0.8,0.8h4.9c0.5,0,0.8-0.4,0.8-0.8v-7.1l3.9,7.4
		c0.1,0.3,0.4,0.5,0.7,0.5h5.6c0.7,0,1.1-0.7,0.7-1.3l-4.9-8.3L98.5,57.6z"/>
	<path class="st2" d="M128.8,74.8c-1-1-2.1-1.9-3.1-2.9c0.8-0.6,1.6-1.2,2.3-1.8c0.4-0.3,0.4-0.8,0.1-1.2c-0.8-0.9-1.6-1.8-2.4-2.8
		c-0.3-0.4-0.9-0.4-1.2,0c-0.7,0.8-1.5,1.6-2.3,2.2c-0.7-0.6-1.2-1.1-1.9-1.7c0.2-0.1,0.4-0.2,0.5-0.2c1-0.4,1.9-1.1,2.5-2.1
		c1.1-1.8,0.9-4-0.5-5.6c-0.7-0.8-1.5-1.3-2.5-1.7c-1.4-0.5-2.9-0.6-4.3-0.5c-0.9,0.1-1.6,0.2-2.5,0.5c-0.7,0.3-1.4,0.7-2,1.2
		c-0.2,0.2-0.5,0.5-0.7,0.7c-1,1.3-1.6,3.7-0.1,5.5c0.2,0.2,0.4,0.5,0.6,0.7c0.1,0.1,0.2,0.2,0.2,0.3l-0.4,0.1
		c-1.1,0.3-2.1,0.8-2.9,1.6c-0.7,0.6-1.2,1.4-1.3,2.4c-0.1,0.5-0.1,1,0,1.5c0.2,1.8,1,3.2,2.5,4.1c1.5,0.9,3.1,1.3,4.8,1.3
		c2.2,0.1,4.2-0.4,6.1-1.5c0.1-0.1,0.2-0.1,0.4-0.2l1.1,1.2c0.1,0.1,0.3,0.2,0.5,0.2h5.8C129,76,129.3,75.2,128.8,74.8z M114.7,71.5
		c-0.5-0.1-1-0.4-1.2-1c-0.2-0.6,0.1-1.1,0.5-1.5c0.2-0.1,0.4-0.3,0.5-0.4c0.8,0.8,1.6,1.6,2.4,2.5
		C116.3,71.4,115.6,71.7,114.7,71.5z M117.2,63.4c-0.3-0.1-0.5-0.4-0.7-0.7c-0.2-0.3-0.3-0.6-0.3-0.9c0-0.4,0.1-0.7,0.4-0.9
		c0.2-0.3,0.6-0.4,0.9-0.4c0.3,0,0.5,0.1,0.8,0.4c0.2,0.2,0.3,0.5,0.3,0.8C118.6,62.3,118.1,62.9,117.2,63.4z"/>
	<path id="XMLID_152_" class="st0" d="M246.9,76c0.6,0,1-0.5,1-1v-4c0-0.6-0.5-1-1-1h-5.2v-12c0-0.6-0.5-1.1-1.1-1.1h-4.4
		c-0.6,0-1.1,0.5-1.1,1.1v17.2c0,0.5,0.4,0.9,0.9,0.9H246.9z"/>
</g>
</svg>
